# xmcd
#
# Track frame offsets:
# 150
# 13608
# 24743
# 38453
# 50348
# 63675
# 73460
# 86500
# 98003
# 113033
# 127593
# 139918
# 153213
# 168638
# 184940
# 198758
# 214093
# 231928
# 245185
# 255518
# 267403
#
# Disc length: 3759 seconds
#
# Revision: 0
# Processed by: cddbd v1.4PL0 Copyright (c) Steve Scherf et al.
# Submitted via: MacMP3 Pro 5.0 (http://mp3.act2.co.jp/)
#
DISCID=280ead15
DTITLE=etc. - Anime Syudaika Daizensyu 10
DYEAR=1900
DGENRE=
TTITLE0=Yokeno Michi
TTITLE1=Dokomademo Arukoune
TTITLE2=Tonchin Kanchin Ikkyusan
TTITLE3=Hahaue sama
TTITLE4=Sougen no MARCO
TTITLE5=Kaasan Ohayou
TTITLE6=CON BATTLER V no THEME
TTITLE7=Ike! CON BATTLER V
TTITLE8=Candy Candy
TTITLE9=Asitaga Suki
TTITLE10=Ganbare Dokaben
TTITLE11=Ah Seisyunyo Itsumademo
TTITLE12=LUPIN III no THEME
TTITLE13=CAPTAIN Herrock
TTITLE14=Warerano Tabidachi
TTITLE15=Ginga Tetsudou 999
TTITLE16=Aoi chikyu
TTITLE17=Doraemon no Uta
TTITLE18=Boku Doraemon
TTITLE19=Wai Wai WORLD
TTITLE20=Ale Ale Ararechan
EXTD=
EXTT0=
EXTT1=
EXTT2=
EXTT3=
EXTT4=
EXTT5=
EXTT6=
EXTT7=
EXTT8=
EXTT9=
EXTT10=
EXTT11=
EXTT12=
EXTT13=
EXTT14=
EXTT15=
EXTT16=
EXTT17=
EXTT18=
EXTT19=
EXTT20=
PLAYORDER=
